<?xml version="1.0" encoding="utf-8"?>
<!-- Generator: Adobe Illustrator 21.0.0, SVG Export Plug-In . SVG Version: 6.00 Build 0)  -->
<svg version="1.1" id="Layer_1" xmlns="http://www.w3.org/2000/svg" xmlns:xlink="http://www.w3.org/1999/xlink" x="0px" y="0px"
	 viewBox="0 0 93.2 128" style="enable-background:new 0 0 93.2 128;" xml:space="preserve">
<path d="M64.8,12.4l-9.2,9.2l-0.1,0.1l-3.8,3.8L38.6,38.6L37,37L25.5,25.5l-7.1-7.1L12,12L0,0v27.1l18.4,18.4l0.1,0.1l6.5,6.5
	L37,64.1l0.1,0.1v26.2l0.9,0.9l13.6,13.6l4,4L74.7,128v-26.2l-10-10l10-10.1l3.5-3.5l13.1-13.1l1.9-1.9V40.8L64.8,12.4z M74.8,54.4
	l-0.1,0.1l-10,10.1l-9.1,9.1L51,78.2L38,65.1l13.6-13.6l4.1-4.1l9-9l10,10l0.1,0.1V54.4z"/>
</svg>
