<?xml version="1.0" encoding="utf-8"?>
<!-- Generator: Adobe Illustrator 21.0.0, SVG Export Plug-In . SVG Version: 6.00 Build 0)  -->
<svg version="1.1" id="Layer_1" xmlns="http://www.w3.org/2000/svg" xmlns:xlink="http://www.w3.org/1999/xlink" x="0px" y="0px"
	 viewBox="0 0 11.6 16" style="enable-background:new 0 0 11.6 16;" xml:space="preserve">
<path d="M8.1,1.6L7,2.7l0,0L6.5,3.2L4.8,4.8L4.6,4.6L3.2,3.2L2.3,2.3L1.5,1.5L0,0v3.4l2.3,2.3l0,0l0.8,0.8L4.6,8l0,0v3.3l0.1,0.1
	l1.7,1.7l0.5,0.5L9.3,16v-3.3l-1.3-1.3l1.3-1.3l0.4-0.4l1.6-1.6l0.2-0.2V5.1L8.1,1.6z M9.3,6.8L9.3,6.8L8.1,8.1L6.9,9.2L6.4,9.8
	L4.7,8.1l1.7-1.7L7,5.9l1.1-1.1l1.3,1.3l0,0V6.8z"/>
</svg>
