<?xml version="1.0" encoding="utf-8"?>
<!-- Generator: Adobe Illustrator 21.0.0, SVG Export Plug-In . SVG Version: 6.00 Build 0)  -->
<svg version="1.1" id="Layer_1" xmlns="http://www.w3.org/2000/svg" xmlns:xlink="http://www.w3.org/1999/xlink" x="0px" y="0px"
	 viewBox="0 0 186.4 256" style="enable-background:new 0 0 186.4 256;" xml:space="preserve">
<path d="M129.6,24.8l-18.4,18.5l-0.2,0.2l-7.5,7.5L77.2,77.2l-3.3-3.3L51.1,51.1L36.8,36.8L23.9,23.9L0,0v54.3l36.8,36.8l0.2,0.2
	l13.1,13.1l23.8,23.8l0.2,0.2v52.4l1.8,1.8l27.1,27.1l8,8l38.4,38.4v-52.4l-20.1-20.1l20.1-20.1l7-7l26.2-26.2l3.8-3.8V81.6
	L129.6,24.8z M149.6,108.9l-0.2,0.2l-20.1,20.1L111,147.5l-8.9,8.8l-26.2-26.2L103,103l8.2-8.2l18-18l20.1,20.1l0.2,0.2V108.9z"/>
</svg>
