<?xml version="1.0" encoding="utf-8"?>
<!-- Generator: Adobe Illustrator 21.0.0, SVG Export Plug-In . SVG Version: 6.00 Build 0)  -->
<svg version="1.1" id="Layer_1" xmlns="http://www.w3.org/2000/svg" xmlns:xlink="http://www.w3.org/1999/xlink" x="0px" y="0px"
	 viewBox="0 0 23.3 32" style="enable-background:new 0 0 23.3 32;" xml:space="preserve">
<path d="M16.2,3.1l-2.3,2.3l0,0l-0.9,0.9L9.7,9.7L9.2,9.2L6.4,6.4L4.6,4.6L3,3L0,0v6.8l4.6,4.6l0,0l1.6,1.6l3,3l0,0v6.5l0.2,0.2
	l3.4,3.4l1,1l4.8,4.8v-6.6l-2.5-2.5l2.5-2.5l0.9-0.9l3.3-3.3l0.5-0.5v-5.6L16.2,3.1z M18.7,13.6L18.7,13.6l-2.5,2.5l-2.3,2.3
	l-1.1,1.1l-3.3-3.3l3.4-3.4l1-1l2.3-2.2l2.5,2.5l0,0V13.6z"/>
</svg>
