<?xml version="1.0" encoding="utf-8"?>
<!-- Generator: Adobe Illustrator 21.0.0, SVG Export Plug-In . SVG Version: 6.00 Build 0)  -->
<svg version="1.1" id="Layer_1" xmlns="http://www.w3.org/2000/svg" xmlns:xlink="http://www.w3.org/1999/xlink" x="0px" y="0px"
	 viewBox="0 0 34.9 48" style="enable-background:new 0 0 34.9 48;" xml:space="preserve">
<path d="M24.3,4.7l-3.5,3.5l0,0l-1.4,1.4l-4.9,4.9l-0.6-0.6L9.6,9.6L6.9,6.9L4.5,4.5L0,0v10.2l6.9,6.9l0,0l2.5,2.4l4.5,4.5l0,0v9.8
	l0.3,0.3l5.1,5.1l1.5,1.5L28,48v-9.8l-3.8-3.8l3.8-3.8l1.3-1.3l4.9-4.9l0.7-0.7v-8.4L24.3,4.7z M28,20.4L28,20.4l-3.8,3.8l-3.4,3.4
	l-1.7,1.7l-4.9-4.9l5.1-5.1l1.5-1.5l3.4-3.4l3.8,3.8l0,0V20.4z"/>
</svg>
