<?xml version="1.0" encoding="utf-8"?>
<!-- Generator: Adobe Illustrator 21.0.0, SVG Export Plug-In . SVG Version: 6.00 Build 0)  -->
<svg version="1.1" id="Layer_1" xmlns="http://www.w3.org/2000/svg" xmlns:xlink="http://www.w3.org/1999/xlink" x="0px" y="0px"
	 viewBox="0 0 372.7 512" style="enable-background:new 0 0 372.7 512;" xml:space="preserve">
<style type="text/css">
	.st0{fill:#FFFFFF;}
</style>
<path class="st0" d="M259.3,49.7l-36.9,37l-0.4,0.4l-15,15l-52.4,52.4l-6.7-6.7l-45.7-45.7L73.7,73.7L47.8,47.8L0,0v108.5l73.7,73.7
	l0.4,0.4l26.1,26.1l47.6,47.6l0.4,0.4v104.8l3.6,3.6l54.2,54.2l15.9,15.9l76.7,76.7V407.2L258.5,367l40.2-40.3l14-14l52.4-52.4
	l7.6-7.6v-89.6L259.3,49.7z M299.1,217.8l-0.4,0.4l-40.2,40.3L222,295l-17.8,17.7l-52.4-52.4L206,206l16.4-16.4l36.1-36l40.2,40.2
	l0.4,0.4V217.8z"/>
</svg>
