<?xml version="1.0" encoding="utf-8"?>
<!-- Generator: Adobe Illustrator 21.0.0, SVG Export Plug-In . SVG Version: 6.00 Build 0)  -->
<svg version="1.1" id="Layer_1" xmlns="http://www.w3.org/2000/svg" xmlns:xlink="http://www.w3.org/1999/xlink" x="0px" y="0px"
	 viewBox="0 0 1075.7 150" style="enable-background:new 0 0 1075.7 150;" xml:space="preserve">
<path d="M76,14.6L65.2,25.4L65,25.5l-4.4,4.4L45.3,45.3l-2-2L29.9,29.9l-8.3-8.3L14,14L0,0v31.8l21.6,21.6l0.1,0.1l7.7,7.7
	l13.9,13.9l0.1,0.1v30.7l1,1l15.9,15.9l4.7,4.7L87.5,150v-30.7l-11.8-11.8l11.8-11.8l4.1-4.1L107,76.3l2.2-2.2V47.8L76,14.6z
	 M87.6,63.8l-0.1,0.1L75.7,75.7L65,86.4l-5.2,5.2L44.5,76.3l15.9-15.9l4.8-4.8L75.7,45l11.8,11.8l0.1,0.1V63.8z"/>
<g>
	<path d="M248.3,74c3.2,0.9,5.8,2.8,8,5.5c2.2,2.7,3.3,6.3,3.3,10.6c0,3-0.5,5.8-1.4,8.4c-0.9,2.6-2.5,4.8-4.7,6.7
		c-2.2,1.9-5.2,3.4-9,4.5c-3.8,1.1-8.5,1.6-14.1,1.6h-63.2V67.1h63.7c1.7,0,3.1-0.3,4.4-1c1.3-0.7,1.9-2,1.9-3.9
		c0-1.8-0.6-3-1.9-3.7c-1.3-0.7-2.7-1-4.3-1h-63.7l15.1-18.9h47.6c4.3,0,8.2,0.4,11.7,1.2c3.5,0.8,6.5,2.1,8.9,3.8
		c2.5,1.7,4.4,3.8,5.7,6.3c1.3,2.5,2,5.4,2,8.7c0,2.2-0.3,4.1-0.9,5.8c-0.6,1.7-1.3,3.1-2.2,4.4c-0.9,1.3-1.9,2.3-3.1,3.1
		C250.7,72.9,249.5,73.5,248.3,74z M189.5,82.7v10h41c2.4,0,4.2-0.4,5.3-1.3c1.1-0.9,1.6-2.1,1.6-3.8c0-1.6-0.5-2.8-1.6-3.6
		c-1.1-0.8-2.8-1.2-5.3-1.2H189.5z"/>
	<path d="M364.2,79.6c0,21.9-14.9,32.9-44.8,32.9c-8.7,0-16.1-0.7-22.4-2.1c-6.2-1.4-11.4-3.4-15.4-6.2c-4.1-2.7-7-6.2-8.9-10.3
		c-1.9-4.1-2.9-8.9-2.9-14.4V38.7H292v40.9c0,2.7,0.4,4.9,1.1,6.7c0.7,1.8,2.1,3.3,4,4.4c2,1.1,4.7,1.9,8.3,2.4
		c3.6,0.5,8.2,0.7,14,0.7c4.3,0,7.9-0.3,10.8-0.8c2.9-0.5,5.2-1.3,6.9-2.5c1.7-1.2,3-2.6,3.7-4.5c0.8-1.8,1.1-4,1.1-6.5V38.7h22.4
		V79.6z"/>
	<path d="M454.8,92.6l-14.4,18.7h-63.6V38.7h22.3v53.9H454.8z"/>
	<path d="M511.9,65.7c1.6,2.8,3,5.3,4.1,7.4c1.2,2.1,2.2,4,3.1,5.7c0.9,1.7,1.7,3.2,2.4,4.6c0.7,1.4,1.3,2.7,2,4
		c0.6-1.3,1.2-2.6,1.9-4c0.7-1.3,1.5-2.9,2.4-4.6c0.9-1.7,1.9-3.6,3.1-5.7c1.2-2.1,2.6-4.6,4.1-7.4l11.5-20.6
		c1.3-2.3,2.9-4.2,4.9-5.6c2-1.4,4.4-2.1,7.4-2.1c2.8,0,5.3,0.8,7.6,2.4c2.3,1.6,3.9,4.1,4.9,7.5l18.2,63.8h-22.2L560.5,86
		c-1.1-4.1-2.1-7.7-2.9-10.9c-0.8-3.1-1.5-6.2-2-9.1c-1.2,2.5-2.6,5.3-4.1,8.4s-3.5,7-5.9,11.7l-9.7,18.2c-0.9,1.8-1.9,3.2-2.8,4.3
		c-1,1-2,1.9-3,2.4c-1,0.6-2.1,1-3.2,1.1c-1.1,0.2-2.4,0.3-3.8,0.3c-1.4,0-2.6-0.1-3.8-0.3c-1.1-0.2-2.2-0.6-3.2-1.1
		c-1-0.6-2-1.4-3-2.4c-1-1-1.9-2.5-2.9-4.3L500.6,86c-1.3-2.5-2.4-4.7-3.4-6.6c-1-2-1.9-3.7-2.7-5.3c-0.8-1.6-1.5-3-2.2-4.3
		c-0.6-1.3-1.2-2.6-1.8-3.8c-0.6,2.9-1.3,5.9-2,9.1c-0.8,3.1-1.7,6.8-2.8,10.9l-6.8,25.3H457l18.6-63.8c1-3.4,2.7-5.9,4.9-7.5
		c2.3-1.6,4.8-2.4,7.6-2.4c2.9,0,5.3,0.7,7.3,2.1c2,1.4,3.6,3.3,4.9,5.6L511.9,65.7z"/>
	<path d="M628,111.3l13.4-18.7h18.1c2.2,0,4.4,0,6.7,0c2.3,0,4.4,0.1,6.1,0.2c-1-1.3-2.2-2.9-3.5-4.9c-1.3-2-2.6-3.9-3.8-5.6
		l-12.9-19.2l-33.8,48.2H592l46.1-65.7c1.5-2.1,3.4-4,5.7-5.6c2.3-1.7,5.2-2.5,8.7-2.5c3.4,0,6.2,0.8,8.4,2.3
		c2.3,1.6,4.2,3.5,5.8,5.8l45,65.7H628z"/>
	<path d="M750.8,67.6l-10.9,14H704l10.9-14H750.8z"/>
	<path d="M854,65.9c0,4.1-0.8,7.7-2.4,11c-1.6,3.3-3.9,6.1-6.9,8.4c-3,2.3-6.8,4.1-11.1,5.4c-4.4,1.3-9.4,2-14.9,2H781v18.6h-22.2
		V74.2h61.9c3.4,0,6.1-0.8,8-2.3c1.9-1.5,2.9-3.5,2.9-6.1c0-2.5-1-4.5-2.9-6c-1.9-1.5-4.6-2.2-8-2.2h-61.9l14.7-18.9h45.2
		c5.6,0,10.6,0.7,14.9,2c4.4,1.3,8.1,3.2,11.1,5.6c3,2.4,5.3,5.2,6.9,8.6C853.2,58.2,854,61.9,854,65.9z"/>
	<path d="M967.3,111.3h-29.8l-16-19.2h-34.2v19.2h-22.3V74.2h62.6c3.4,0,6.3-0.7,8.7-2.2c2.4-1.4,3.5-3.4,3.5-6
		c0-2.8-1.1-4.9-3.2-6.3c-2.2-1.4-5.2-2.1-9-2.1h-62.6l14.5-18.9h46.2c4.1,0,8.3,0.4,12.7,1.1c4.4,0.8,8.4,2.1,11.9,4.1
		c3.6,2,6.5,4.6,8.9,7.9c2.3,3.3,3.5,7.6,3.5,12.8c0,2.8-0.4,5.5-1.3,8c-0.9,2.5-2.1,4.8-3.7,6.8c-1.6,2-3.6,3.7-5.9,5.2
		c-2.3,1.4-5,2.4-7.9,3c1.2,0.9,2.6,2.1,4.1,3.6c1.5,1.4,3.5,3.4,6,6L967.3,111.3z"/>
	<path d="M1023.1,37.5c17.5,0,30.6,3,39.4,9c8.8,6,13.2,15.5,13.2,28.4c0,13-4.4,22.5-13.1,28.5c-8.7,6-21.9,9-39.5,9
		c-17.6,0-30.8-3-39.5-9c-8.7-6-13.1-15.5-13.1-28.5c0-13,4.4-22.4,13.1-28.4C992.3,40.5,1005.5,37.5,1023.1,37.5z M1023.1,93.6
		c5.6,0,10.3-0.2,14.2-0.7c3.9-0.5,7-1.4,9.4-2.8c2.4-1.4,4.1-3.3,5.2-5.7c1.1-2.4,1.6-5.6,1.6-9.5c0-3.9-0.5-7.1-1.6-9.5
		c-1.1-2.4-2.8-4.3-5.2-5.6c-2.4-1.3-5.5-2.2-9.4-2.7c-3.9-0.5-8.6-0.7-14.2-0.7c-5.6,0-10.3,0.2-14.2,0.7c-3.9,0.5-7,1.4-9.4,2.7
		c-2.4,1.3-4.1,3.2-5.2,5.6c-1.1,2.4-1.6,5.6-1.6,9.5c0,3.9,0.5,7.1,1.6,9.5c1.1,2.4,2.8,4.3,5.2,5.7c2.4,1.4,5.5,2.3,9.4,2.8
		C1012.7,93.4,1017.5,93.6,1023.1,93.6z"/>
</g>
</svg>
