<?xml version="1.0" encoding="utf-8"?>
<!-- Generator: Adobe Illustrator 21.0.0, SVG Export Plug-In . SVG Version: 6.00 Build 0)  -->
<svg version="1.1" id="Layer_1" xmlns="http://www.w3.org/2000/svg" xmlns:xlink="http://www.w3.org/1999/xlink" x="0px" y="0px"
	 viewBox="0 0 439.4 249.4" style="enable-background:new 0 0 439.4 249.4;" xml:space="preserve">
<style type="text/css">
	.st0{fill:#009DCC;}
</style>
<path class="st0" d="M246.8,18.4l-13.7,13.7l-0.2,0.2l-5.6,5.6l-19.5,19.4l-2.5-2.5l-17-17l-10.6-10.6l-9.6-9.6L150.6,0v40.3
	l27.3,27.3l0.2,0.2l9.7,9.7l17.6,17.6l0.2,0.2v38.9l1.3,1.3l20.1,20.1l5.9,5.9l28.5,28.5v-38.9l-14.9-14.9l14.9-14.9l5.2-5.2
	l19.5-19.4l2.8-2.8V60.5L246.8,18.4z M261.6,80.8l-0.2,0.2l-14.9,14.9l-13.6,13.6l-6.6,6.6l-19.4-19.4L227,76.5l6.1-6.1L246.5,57
	l14.9,14.9l0.2,0.2V80.8z"/>
<g>
	<path class="st0" d="M39.3,231.4c1.5,0.5,2.8,1.3,3.9,2.7s1.6,3,1.6,5.1c0,1.5-0.2,2.8-0.7,4.1c-0.4,1.2-1.2,2.3-2.3,3.2
		c-1.1,0.9-2.5,1.6-4.3,2.2c-1.8,0.5-4.1,0.8-6.8,0.8H0v-21.4h30.8c0.8,0,1.5-0.2,2.1-0.5c0.6-0.3,0.9-1,0.9-1.9
		c0-0.9-0.3-1.5-0.9-1.8c-0.6-0.3-1.3-0.5-2.1-0.5H0l7.3-9.1h23c2.1,0,4,0.2,5.6,0.6c1.7,0.4,3.1,1,4.3,1.8c1.2,0.8,2.1,1.8,2.8,3
		c0.6,1.2,1,2.6,1,4.2c0,1-0.1,2-0.4,2.8c-0.3,0.8-0.6,1.5-1.1,2.1c-0.4,0.6-0.9,1.1-1.5,1.5C40.4,230.8,39.9,231.2,39.3,231.4z
		 M10.8,235.6v4.8h19.8c1.2,0,2-0.2,2.5-0.6c0.5-0.4,0.8-1,0.8-1.8c0-0.8-0.3-1.4-0.8-1.8c-0.5-0.4-1.4-0.6-2.5-0.6H10.8z"/>
	<path class="st0" d="M95.3,234.1c0,10.6-7.2,15.9-21.7,15.9c-4.2,0-7.8-0.3-10.8-1c-3-0.7-5.5-1.7-7.5-3c-2-1.3-3.4-3-4.3-5
		c-0.9-2-1.4-4.3-1.4-7v-19.8h10.7v19.8c0,1.3,0.2,2.4,0.5,3.3c0.3,0.9,1,1.6,2,2.1c1,0.5,2.3,0.9,4,1.2c1.7,0.2,4,0.3,6.8,0.3
		c2.1,0,3.8-0.1,5.2-0.4c1.4-0.2,2.5-0.6,3.3-1.2c0.8-0.6,1.4-1.3,1.8-2.2c0.4-0.9,0.5-1.9,0.5-3.2v-19.8h10.8V234.1z"/>
	<path class="st0" d="M139.1,240.4l-7,9h-30.7v-35.1h10.8v26.1H139.1z"/>
	<path class="st0" d="M166.8,227.4c0.8,1.4,1.4,2.6,2,3.6c0.6,1,1.1,2,1.5,2.8c0.4,0.8,0.8,1.5,1.1,2.2c0.3,0.7,0.7,1.3,1,1.9
		c0.3-0.6,0.6-1.3,0.9-1.9c0.3-0.6,0.7-1.4,1.1-2.2s0.9-1.7,1.5-2.8c0.6-1,1.2-2.2,2-3.6l5.6-10c0.6-1.1,1.4-2,2.4-2.7
		c1-0.7,2.1-1,3.6-1c1.4,0,2.6,0.4,3.7,1.2c1.1,0.8,1.9,2,2.4,3.6l8.8,30.9h-10.7l-3.3-12.2c-0.6-2-1-3.7-1.4-5.2
		c-0.4-1.5-0.7-3-1-4.4c-0.6,1.2-1.2,2.6-2,4.1c-0.7,1.5-1.7,3.4-2.9,5.6l-4.7,8.8c-0.4,0.9-0.9,1.6-1.4,2.1
		c-0.5,0.5-0.9,0.9-1.4,1.2c-0.5,0.3-1,0.5-1.6,0.6c-0.6,0.1-1.2,0.1-1.8,0.1s-1.3,0-1.8-0.1c-0.6-0.1-1.1-0.3-1.6-0.6
		c-0.5-0.3-1-0.7-1.4-1.2c-0.5-0.5-0.9-1.2-1.4-2.1l-4.7-8.9c-0.6-1.2-1.2-2.3-1.7-3.2c-0.5-0.9-0.9-1.8-1.3-2.5
		c-0.4-0.8-0.7-1.4-1-2.1c-0.3-0.6-0.6-1.2-0.9-1.8c-0.3,1.4-0.6,2.9-1,4.4c-0.4,1.5-0.8,3.3-1.4,5.3l-3.3,12.2h-10.6l9-30.9
		c0.5-1.6,1.3-2.9,2.4-3.6c1.1-0.8,2.3-1.2,3.7-1.2c1.4,0,2.6,0.3,3.5,1c1,0.7,1.7,1.6,2.4,2.7L166.8,227.4z"/>
	<path class="st0" d="M222.9,249.4l6.5-9h8.7c1,0,2.1,0,3.3,0c1.1,0,2.1,0,2.9,0.1c-0.5-0.6-1-1.4-1.7-2.4c-0.6-1-1.3-1.9-1.8-2.7
		l-6.2-9.3l-16.3,23.3h-12.7l22.3-31.8c0.7-1,1.6-1.9,2.8-2.7c1.1-0.8,2.5-1.2,4.2-1.2c1.6,0,3,0.4,4.1,1.1c1.1,0.8,2,1.7,2.8,2.8
		l21.7,31.8H222.9z"/>
	<path class="st0" d="M282.3,228.3L277,235h-17.4l5.3-6.8H282.3z"/>
	<path class="st0" d="M332.2,227.5c0,2-0.4,3.7-1.1,5.3c-0.8,1.6-1.9,2.9-3.4,4.1c-1.5,1.1-3.3,2-5.4,2.6c-2.1,0.6-4.5,0.9-7.2,0.9
		h-18.2v9h-10.7v-18h30c1.7,0,3-0.4,3.9-1.1c0.9-0.7,1.4-1.7,1.4-2.9c0-1.2-0.5-2.2-1.4-2.9c-0.9-0.7-2.2-1.1-3.9-1.1h-30l7.1-9.1
		h21.8c2.7,0,5.1,0.3,7.2,1c2.1,0.6,3.9,1.5,5.4,2.7c1.5,1.2,2.6,2.5,3.3,4.1C331.9,223.7,332.2,225.5,332.2,227.5z"/>
	<path class="st0" d="M387.1,249.4h-14.4l-7.8-9.3h-16.5v9.3h-10.8v-18h30.3c1.7,0,3.1-0.3,4.2-1c1.1-0.7,1.7-1.7,1.7-2.9
		c0-1.4-0.5-2.4-1.6-3.1c-1-0.7-2.5-1-4.4-1h-30.3l7-9.1H367c2,0,4,0.2,6.1,0.6c2.1,0.4,4,1,5.8,2c1.7,0.9,3.2,2.2,4.3,3.8
		c1.1,1.6,1.7,3.7,1.7,6.2c0,1.4-0.2,2.7-0.6,3.9c-0.4,1.2-1,2.3-1.8,3.3c-0.8,1-1.7,1.8-2.9,2.5c-1.1,0.7-2.4,1.2-3.8,1.4
		c0.6,0.5,1.2,1,2,1.7c0.7,0.7,1.7,1.7,2.9,2.9L387.1,249.4z"/>
	<path class="st0" d="M414,213.7c8.5,0,14.8,1.5,19.1,4.4c4.2,2.9,6.4,7.5,6.4,13.8c0,6.3-2.1,10.9-6.3,13.8
		c-4.2,2.9-10.6,4.4-19.1,4.4c-8.5,0-14.9-1.5-19.1-4.4c-4.2-2.9-6.3-7.5-6.3-13.8c0-6.3,2.1-10.8,6.3-13.8
		C399.1,215.2,405.5,213.7,414,213.7z M414,240.9c2.7,0,5-0.1,6.9-0.3c1.9-0.2,3.4-0.7,4.6-1.3c1.2-0.7,2-1.6,2.5-2.8
		c0.5-1.2,0.8-2.7,0.8-4.6c0-1.9-0.3-3.4-0.8-4.6c-0.5-1.2-1.4-2.1-2.5-2.7c-1.2-0.6-2.7-1.1-4.6-1.3c-1.9-0.2-4.2-0.3-6.9-0.3
		c-2.7,0-5,0.1-6.9,0.3c-1.9,0.2-3.4,0.7-4.6,1.3c-1.2,0.6-2,1.6-2.5,2.7c-0.5,1.2-0.8,2.7-0.8,4.6c0,1.9,0.3,3.4,0.8,4.6
		c0.5,1.2,1.4,2.1,2.5,2.8c1.2,0.7,2.7,1.1,4.6,1.3C409,240.8,411.3,240.9,414,240.9z"/>
</g>
</svg>
